# xmcd
#
# Track frame offsets: 
#        150
#        17443
#        32815
#        46212
#        63182
#        84914
#        97293
#        113419
#        133988
#        145463
#        161074
#        180679
#        190100
#
# Disc length: 2822 seconds
#
# Revision: 0
# Processed by: cddbd v1.5.2PL0 Copyright (c) Steve Scherf et al.
# Submitted via: ExactAudioCopyFreeDBPlugin 1.0
#
DISCID=ac0b040d
DTITLE=The Infamous Roots Rielemans Family Orchestra - Time Of Day
DYEAR=2016
DGENRE=Country
TTITLE0=Who's That Man?
TTITLE1=Life's Too Short
TTITLE2=Deep In My Soul
TTITLE3=Sentimental Blue
TTITLE4=Doing It Right
TTITLE5=Caravana
TTITLE6=Lowlands Clay
TTITLE7=The Fire That Burns
TTITLE8=Talking Too Much
TTITLE9=The Rest Of My Life
TTITLE10=I'd Do It Again
TTITLE11=Time Of Day
TTITLE12=The Landlord And His Maiden
EXTD=
EXTT0=
EXTT1=
EXTT2=
EXTT3=
EXTT4=
EXTT5=
EXTT6=
EXTT7=
EXTT8=
EXTT9=
EXTT10=
EXTT11=
EXTT12=
PLAYORDER=
